<svg viewBox="0 0 800 600" xmlns="http://www.w3.org/2000/svg">
  <defs>
    <linearGradient id="grad1" x1="0%" y1="0%" x2="100%" y2="100%">
      <stop offset="0%" style="stop-color:#667eea;stop-opacity:1" />
      <stop offset="100%" style="stop-color:#764ba2;stop-opacity:1" />
    </linearGradient>
    <linearGradient id="grad2" x1="0%" y1="0%" x2="100%" y2="100%">
      <stop offset="0%" style="stop-color:#f093fb;stop-opacity:1" />
      <stop offset="100%" style="stop-color:#f5576c;stop-opacity:1" />
    </linearGradient>
  </defs>
  
  <!-- Background -->
  <rect width="800" height="600" fill="url(#grad1)" opacity="0.1"/>
  
  <!-- Main illustration -->
  <g transform="translate(100, 50)">
    <!-- Calendar/Event icon -->
    <rect x="200" y="100" width="300" height="350" rx="20" fill="white" stroke="#e5e7eb" stroke-width="2"/>
    <rect x="200" y="100" width="300" height="80" rx="20" fill="url(#grad2)"/>
    
    <!-- Calendar header -->
    <circle cx="240" cy="140" r="8" fill="white"/>
    <circle cx="460" cy="140" r="8" fill="white"/>
    <text x="350" y="150" text-anchor="middle" fill="white" font-family="Arial, sans-serif" font-size="24" font-weight="bold">Events</text>
    
    <!-- Calendar grid -->
    <g fill="#6b7280">
      <rect x="220" y="200" width="40" height="30" rx="5" fill="#f3f4f6"/>
      <rect x="270" y="200" width="40" height="30" rx="5" fill="#f3f4f6"/>
      <rect x="320" y="200" width="40" height="30" rx="5" fill="#f3f4f6"/>
      <rect x="370" y="200" width="40" height="30" rx="5" fill="#f3f4f6"/>
      <rect x="420" y="200" width="40" height="30" rx="5" fill="#f3f4f6"/>
      
      <rect x="220" y="240" width="40" height="30" rx="5" fill="#f3f4f6"/>
      <rect x="270" y="240" width="40" height="30" rx="5" fill="url(#grad2)"/>
      <rect x="320" y="240" width="40" height="30" rx="5" fill="#f3f4f6"/>
      <rect x="370" y="240" width="40" height="30" rx="5" fill="#f3f4f6"/>
      <rect x="420" y="240" width="40" height="30" rx="5" fill="#f3f4f6"/>
      
      <rect x="220" y="280" width="40" height="30" rx="5" fill="#f3f4f6"/>
      <rect x="270" y="280" width="40" height="30" rx="5" fill="#f3f4f6"/>
      <rect x="320" y="280" width="40" height="30" rx="5" fill="url(#grad2)"/>
      <rect x="370" y="280" width="40" height="30" rx="5" fill="#f3f4f6"/>
      <rect x="420" y="280" width="40" height="30" rx="5" fill="#f3f4f6"/>
    </g>
    
    <!-- Event details -->
    <rect x="220" y="330" width="260" height="60" rx="10" fill="#f9fafb" stroke="#e5e7eb"/>
    <circle cx="245" cy="360" r="15" fill="url(#grad2)"/>
    <text x="270" y="355" fill="#374151" font-family="Arial, sans-serif" font-size="14" font-weight="bold">Tech Conference 2024</text>
    <text x="270" y="370" fill="#6b7280" font-family="Arial, sans-serif" font-size="12">Dec 15, 2024 • 9:00 AM</text>
    
    <!-- People icons -->
    <g transform="translate(50, 200)">
      <circle cx="50" cy="50" r="25" fill="url(#grad1)"/>
      <circle cx="45" cy="45" r="8" fill="white"/>
      <path d="M30 65 Q30 55 45 55 Q60 55 60 65 Q60 75 45 75 Q30 75 30 65" fill="white"/>
    </g>
    
    <g transform="translate(520, 250)">
      <circle cx="50" cy="50" r="25" fill="url(#grad2)"/>
      <circle cx="45" cy="45" r="8" fill="white"/>
      <path d="M30 65 Q30 55 45 55 Q60 55 60 65 Q60 75 45 75 Q30 75 30 65" fill="white"/>
    </g>
    
    <!-- Connecting lines -->
    <path d="M125 250 Q175 225 200 250" stroke="url(#grad1)" stroke-width="3" fill="none" stroke-dasharray="5,5"/>
    <path d="M500 300 Q520 275 545 300" stroke="url(#grad2)" stroke-width="3" fill="none" stroke-dasharray="5,5"/>
    
    <!-- Floating elements -->
    <circle cx="100" cy="150" r="6" fill="url(#grad1)" opacity="0.7"/>
    <circle cx="550" cy="180" r="8" fill="url(#grad2)" opacity="0.7"/>
    <circle cx="80" cy="350" r="4" fill="url(#grad1)" opacity="0.5"/>
    <circle cx="580" cy="380" r="5" fill="url(#grad2)" opacity="0.6"/>
  </g>
</svg>